<?xml version="1.0" encoding="UTF-8"?>
<svg width="101px" height="99px" viewBox="0 0 101 99" version="1.1" xmlns="http://www.w3.org/2000/svg" xmlns:xlink="http://www.w3.org/1999/xlink">
    <!-- Generator: Sketch 51.3 (57544) - http://www.bohemiancoding.com/sketch -->
    <title>production</title>
    <desc>Created with Sketch.</desc>
    <defs></defs>
    <g id="Page-1" stroke="none" stroke-width="1" fill="none" fill-rule="evenodd">
        <g id="production" fill-rule="nonzero">
            <g id="XMLID_6174_" transform="translate(0.000000, 30.000000)">
                <g id="XMLID_6197_" transform="translate(6.000000, 7.000000)" fill="#8DF690">
                    <path d="M15.6,52.5 C7.4,48.4 2.1,40.1 1.2,31 C0.3,21.8 2.2,12 9.1,6.9 C19.7,-1 38.8,-3.2 50.1,13.2 C61.4,29.6 51.4,44 45.6,49.1 C39.8,54.2 28.8,55 21.4,54.3 C19.5,54.1 17.5,53.4 15.6,52.5 Z M26.2,20.6 L26.4,21.2 C24,21.8 22.3,23 21.5,24.5 C20.8,25.9 20.9,27.6 21.7,29.5 C23.2,32.9 26.6,35.8 29.9,34.4 C32.7,33.2 36.5,29.5 34.7,24.8 C32.9,20 28.2,20.7 26.3,21.2 L26.2,20.6 Z" id="Combined-Shape"></path>
                </g>
                <g id="XMLID_6196_" transform="translate(15.000000, 16.000000)" fill="#4AD295">
                    <path d="M10.6,35.7 C5,32.9 1.3,27.2 0.7,21 C0.1,14.7 1.4,8 6.1,4.5 C13.3,-0.9 26.4,-2.4 34.1,8.8 C41.8,20 35,29.8 31,33.3 C27,36.8 19.5,37.3 14.5,36.9 C13.2,36.8 11.9,36.3 10.6,35.7 Z M17.2,11.6 L17.4,12.2 C15,12.8 13.3,14 12.5,15.5 C11.8,16.9 11.9,18.6 12.7,20.5 C14.2,23.9 17.6,26.8 20.9,25.4 C23.7,24.2 27.5,20.5 25.7,15.8 C23.9,11 19.2,11.7 17.3,12.2 L17.2,11.6 Z" id="Combined-Shape"></path>
                </g>
                <g id="XMLID_6191_" transform="translate(25.000000, 26.000000)" fill="#8DF690">
                    <path d="M9.2,17.1 C6.2,17.1 3.2,14.8 1.5,11 C0.5,8.8 0.4,6.7 1.3,4.9 C2.2,3 4.2,1.6 7,0.9 C8.8,0.4 14.7,-0.6 16.9,5.3 C18.8,10.3 15.4,14.9 11.3,16.6 C10.7,16.9 10,17.1 9.2,17.1 Z M7.2,1.6 L7.4,2.2 C5,2.8 3.3,4 2.5,5.5 C1.8,6.9 1.9,8.6 2.7,10.5 C4.2,13.9 7.6,16.8 10.9,15.4 C13.7,14.2 17.5,10.5 15.7,5.8 C13.9,1 9.2,1.7 7.3,2.2 L7.2,1.6 Z" id="XMLID_6192_"></path>
                </g>
                <g id="XMLID_6190_" transform="translate(27.000000, 0.000000)" fill="#8DF690">
                    <path d="M2.5,10.9 C1.5,6.8 0.1,1.3 1.3,1.3 C2.5,1.3 7.7,-0.1 8.3,0.5 C8.9,1.1 9.1,10.3 9.1,10.3 L2.5,10.9 Z" id="Shape"></path>
                </g>
                <g id="XMLID_6189_" transform="translate(12.000000, 4.000000)" fill="#8DF690">
                    <path d="M6.5,12.4 C3.6,9.4 -0.4,5.3 0.7,4.7 C1.8,4.1 5.5,0.3 6.3,0.5 C7.1,0.7 11.9,8.6 11.9,8.6 L6.5,12.4 Z" id="Shape"></path>
                </g>
                <g id="XMLID_6188_" transform="translate(2.000000, 16.000000)" fill="#8DF690">
                    <path d="M9.7,10.6 C5.7,9.4 0.2,7.9 0.8,6.9 C1.4,5.9 2.8,0.7 3.5,0.5 C4.3,0.3 12.4,4.8 12.4,4.8 L9.7,10.6 Z" id="Shape"></path>
                </g>
                <g id="XMLID_6187_" transform="translate(0.000000, 32.000000)" fill="#8DF690">
                    <path d="M10.9,6.9 C6.8,7.9 1.3,9.3 1.3,8.1 C1.3,6.9 -0.1,1.7 0.5,1.1 C1.1,0.5 10.3,0.3 10.3,0.3 L10.9,6.9 Z" id="Shape"></path>
                </g>
                <g id="XMLID_6186_" transform="translate(4.000000, 44.000000)" fill="#8DF690">
                    <path d="M12.4,6 C9.4,8.9 5.3,12.9 4.7,11.8 C4.1,10.8 0.3,7 0.5,6.2 C0.7,5.4 8.6,0.6 8.6,0.6 L12.4,6 Z" id="Shape"></path>
                </g>
                <g id="XMLID_6185_" transform="translate(16.000000, 54.000000)" fill="#8DF690">
                    <path d="M10.6,2.8 C9.4,6.8 7.9,12.3 6.9,11.7 C5.9,11.1 0.7,9.7 0.5,9 C0.3,8.2 4.8,0.1 4.8,0.1 L10.6,2.8 Z" id="Shape"></path>
                </g>
                <g id="XMLID_6184_" transform="translate(32.000000, 57.000000)" fill="#8DF690">
                    <path d="M6.9,0.5 C7.9,4.6 9.3,10.1 8.1,10.1 C6.9,10.1 1.7,11.5 1.1,10.9 C0.5,10.3 0.3,1.1 0.3,1.1 L6.9,0.5 Z" id="Shape"></path>
                </g>
                <g id="XMLID_6183_" transform="translate(44.000000, 52.000000)" fill="#8DF690">
                    <path d="M6,0.1 C8.9,3.1 12.9,7.2 11.8,7.8 C10.8,8.4 7,12.2 6.2,12 C5.4,11.8 0.6,3.9 0.6,3.9 L6,0.1 Z" id="Shape"></path>
                </g>
                <g id="XMLID_6182_" transform="translate(54.000000, 41.000000)" fill="#8DF690">
                    <path d="M2.8,0.8 C6.8,2 12.3,3.5 11.7,4.5 C11.1,5.5 9.7,10.7 9,10.9 C8.2,11.1 0.1,6.6 0.1,6.6 L2.8,0.8 Z" id="Shape"></path>
                </g>
                <g id="XMLID_6181_" transform="translate(57.000000, 27.000000)" fill="#8DF690">
                    <path d="M0.6,2.5 C4.7,1.5 10.2,0.1 10.2,1.3 C10.2,2.5 11.6,7.7 11,8.3 C10.4,8.9 1.2,9.1 1.2,9.1 L0.6,2.5 Z" id="Shape"></path>
                </g>
                <g id="XMLID_6180_" transform="translate(52.000000, 12.000000)" fill="#8DF690">
                    <path d="M0.1,6.5 C3.1,3.6 7.2,-0.4 7.8,0.7 C8.4,1.7 12.2,5.5 12,6.3 C11.8,7.1 3.9,11.9 3.9,11.9 L0.1,6.5 Z" id="Shape"></path>
                </g>
                <g id="XMLID_6179_" transform="translate(41.000000, 2.000000)" fill="#8DF690">
                    <path d="M0.8,9.6 C2,5.6 3.5,0.1 4.5,0.7 C5.5,1.3 10.7,2.7 10.9,3.4 C11.1,4.1 6.6,12.3 6.6,12.3 L0.8,9.6 Z" id="Shape"></path>
                </g>
                <g id="XMLID_6175_" transform="translate(10.000000, 12.000000)" fill="#69E781">
                    <path d="M23.1,45.2 C14.9,45.2 6.7,41.4 2.9,32.9 C1.77635684e-15,26.4 1.77635684e-15,19.2 2.9,13.2 C4.9,9 9.2,3.6 18.4,1.2 C23,-1.44328993e-15 38.2,-2.6 44.5,14.4 C49.3,27.4 45,38.1 33,43.2 C29.9,44.5 26.5,45.2 23.1,45.2 Z M25.2,1.6 C22.4,1.6 20.1,2.1 18.8,2.4 C11.9,4.2 6.9,8.1 4.2,13.7 C1.5,19.3 1.5,26.1 4.2,32.3 C9.2,43.6 22.8,46.1 32.5,42 C37.9,39.7 49.8,32.4 43.3,14.8 C39.3,3.9 31.2,1.6 25.2,1.6 Z" id="XMLID_6176_"></path>
                </g>
            </g>
            <g id="XMLID_6152_" transform="translate(47.000000, 0.000000)">
                <g id="XMLID_6173_" transform="translate(6.000000, 6.000000)" fill="#FCD250">
                    <path d="M13.2,40 C6.8,37.2 2.4,31.1 1.3,24.2 C0.2,17.2 1.3,9.7 6.3,5.5 C14,-0.9 28.5,-3.4 37.8,8.6 C47.1,20.6 40,32 35.8,36.2 C31.6,40.3 23.2,41.3 17.6,41.1 C16.2,41.1 14.7,40.6 13.2,40 Z M22.3,15.8 C21.5,15.8 20.7,16 20.2,16.1 C18.5,16.6 17.4,17.5 17,18.6 C16.6,19.6 16.7,20.8 17.3,22 C18.5,24.3 20.9,26.2 23.1,25.1 C25,24.2 27.5,21.5 26.1,18.3 C25.3,16.3 23.7,15.8 22.3,15.8 Z" id="Combined-Shape"></path>
                </g>
                <g id="XMLID_6172_" transform="translate(16.000000, 15.000000)" fill="#FFB229">
                    <path d="M7.1,22.2 C3.6,20.7 1.2,17.4 0.6,13.6 C-2.22044605e-16,9.8 0.6,5.7 3.3,3.5 C7.5,4.4408921e-16 15.4,-1.3 20.4,5.2 C25.4,11.7 21.6,17.9 19.3,20.2 C17,22.4 12.5,23 9.4,22.9 C8.7,22.7 7.9,22.5 7.1,22.2 Z M12.3,6.8 C11.5,6.8 10.7,7 10.2,7.1 C8.5,7.6 7.4,8.5 7,9.6 C6.6,10.6 6.7,11.8 7.3,13 C8.5,15.3 10.9,17.2 13.1,16.1 C15,15.2 17.5,12.5 16.1,9.3 C15.3,7.3 13.7,6.8 12.3,6.8 Z" id="Combined-Shape"></path>
                </g>
                <g id="XMLID_6171_" transform="translate(3.000000, 33.000000)" fill="#8DF690">
                    <path d="M12.4,5.4 C9.5,8.4 5.7,12.6 5,11.6 C4.3,10.6 0.4,7 0.5,6.2 C0.7,5.4 8.3,0.2 8.3,0.2 L12.4,5.4 Z" id="Shape"></path>
                </g>
                <g id="XMLID_6170_" transform="translate(3.000000, 33.000000)" fill="#FCD250">
                    <path d="M12.4,5.4 C9.5,8.4 5.7,12.6 5,11.6 C4.3,10.6 0.4,7 0.5,6.2 C0.7,5.4 8.3,0.2 8.3,0.2 L12.4,5.4 Z" id="Shape"></path>
                </g>
                <g id="XMLID_6169_" transform="translate(17.000000, 41.000000)" fill="#FCD250">
                    <path d="M8.6,2.1 C8.3,6.3 8.1,12 7,11.6 C5.9,11.3 0.5,11.1 0.1,10.4 C-0.3,9.7 2.3,0.8 2.3,0.8 L8.6,2.1 Z" id="Shape"></path>
                </g>
                <g id="XMLID_6168_" transform="translate(30.000000, 40.000000)" fill="#FCD250">
                    <path d="M6.5,0.1 C9,3.5 12.5,8 11.4,8.4 C10.3,8.9 6.1,12.2 5.3,11.9 C4.5,11.6 0.8,3.1 0.8,3.1 L6.5,0.1 Z" id="Shape"></path>
                </g>
                <g id="XMLID_6167_" transform="translate(40.000000, 30.000000)" fill="#FCD250">
                    <path d="M2.9,0.9 C6.9,1.9 12.5,3.1 12,4.2 C11.5,5.3 10.4,10.5 9.6,10.8 C8.8,11.1 0.5,7 0.5,7 L2.9,0.9 Z" id="Shape"></path>
                </g>
                <g id="XMLID_6166_" transform="translate(41.000000, 16.000000)" fill="#FCD250">
                    <path d="M0.9,3.7 C4.6,1.9 9.7,-0.8 10,0.4 C10.3,1.6 12.8,6.3 12.4,7 C12,7.7 3,10 3,10 L0.9,3.7 Z" id="Shape"></path>
                </g>
                <g id="XMLID_6165_" transform="translate(33.000000, 3.000000)" fill="#FCD250">
                    <path d="M0.9,8.8 C2.6,5 4.7,-0.3 5.7,0.4 C6.7,1.1 11.6,3.1 11.8,3.9 C11.9,4.7 6.5,12.2 6.5,12.2 L0.9,8.8 Z" id="Shape"></path>
                </g>
                <g id="XMLID_6164_" transform="translate(20.000000, 0.000000)" fill="#FCD250">
                    <path d="M2.7,10.9 C1.5,6.9 -0.2,1.5 1,1.4 C2.2,1.3 7.3,-0.3 7.9,0.2 C8.5,0.7 9.2,10 9.2,10 L2.7,10.9 Z" id="Shape"></path>
                </g>
                <g id="XMLID_6163_" transform="translate(5.000000, 5.000000)" fill="#FCD250">
                    <path d="M8.5,12.3 C5,10 0.2,6.9 1.1,6.1 C2,5.3 4.8,0.7 5.6,0.7 C6.4,0.7 12.9,7.4 12.9,7.4 L8.5,12.3 Z" id="Shape"></path>
                </g>
                <g id="XMLID_6162_" transform="translate(0.000000, 21.000000)" fill="#FCD250">
                    <path d="M10.7,7.2 C6.6,7.7 0.9,8.4 1.1,7.2 C1.2,6 0.5,0.7 1.1,0.2 C1.7,-0.3 11,0.6 11,0.6 L10.7,7.2 Z" id="Shape"></path>
                </g>
                <g id="XMLID_6157_" transform="translate(21.000000, 20.000000)" fill="#FCD250">
                    <path d="M6.8,12.4 C4.8,12.4 2.7,10.9 1.5,8.5 C0.7,7 0.6,5.6 1.1,4.3 C1.7,3 3,1.9 4.9,1.3 C6.1,0.9 10.2,-3.66373598e-15 11.9,4 C13.4,7.4 11.2,10.7 8.5,12 C8,12.2 7.4,12.4 6.8,12.4 Z M7.3,1.8 C6.5,1.8 5.7,2 5.2,2.1 C3.5,2.6 2.4,3.5 2,4.6 C1.6,5.6 1.7,6.8 2.3,8 C3.5,10.3 5.9,12.2 8.1,11.1 C10,10.2 12.5,7.5 11.1,4.3 C10.3,2.3 8.7,1.8 7.3,1.8 Z" id="XMLID_6158_"></path>
                </g>
                <g id="XMLID_6153_" transform="translate(12.000000, 12.000000)" fill="#FFB229">
                    <path d="M13.8,29.2 C13.5,29.2 13.2,29.2 12.8,29.2 C11.8,29.2 10.8,28.9 9.6,28.4 C5.1,26.5 1.9,22.2 1.1,17.2 C0.2,11.4 1.6,6.6 4.7,3.9 C8,1.1 12.6,-0.3 16.8,0.2 C20.8,0.6 24.3,2.7 27,6.1 C33.3,14.3 29.1,22.2 25.6,25.7 C23.1,28.3 18,29.2 13.8,29.2 Z M15.4,1.2 C11.9,1.2 8.3,2.5 5.6,4.7 C1.5,8.1 2,14.4 2.4,16.9 C3.1,21.5 6.1,25.5 10.2,27.3 C11.3,27.8 12.2,28 13,28 C17.1,28.1 22.4,27.4 25,24.8 C28.2,21.6 32.1,14.3 26.3,6.8 C23.8,3.6 20.6,1.7 16.9,1.3 C16.4,1.3 15.9,1.2 15.4,1.2 Z" id="XMLID_6154_"></path>
                </g>
            </g>
        </g>
    </g>
</svg>